<REAPER_PROJECT 0.1 "7.07/linux-x86_64" 1720038778
  RIPPLE 0
  GROUPOVERRIDE 0 0 0
  AUTOXFADE 129
  ENVATTACH 1
  POOLEDENVATTACH 0
  MIXERUIFLAGS 11 48
  PEAKGAIN 1
  FEEDBACK 0
  PANLAW 1
  PROJOFFS 0 0 0
  MAXPROJLEN 0 600
  GRID 3199 8 1 8 1 0 0 0
  TIMEMODE 1 5 -1 30 0 0 -1
  VIDEO_CONFIG 0 0 256
  PANMODE 3
  CURSOR 27.16981132075472
  ZOOM 3.60624905873948 0 0
  VZOOMEX 0 0
  USE_REC_CFG 0
  RECMODE 1
  SMPTESYNC 0 30 100 40 1000 300 0 0 1 0 0
  LOOP 0
  LOOPGRAN 0 4
  RECORD_PATH "" ""
  <RECORD_CFG
    ZXZhdxgAAQ==
  >
  <APPLYFX_CFG
  >
  RENDER_FILE ""
  RENDER_PATTERN $project
  RENDER_FMT 0 2 44100
  RENDER_1X 0
  RENDER_RANGE 1 0 0 18 1000
  RENDER_RESAMPLE 3 0 1
  RENDER_ADDTOPROJ 0
  RENDER_STEMS 0
  RENDER_DITHER 0
  TIMELOCKMODE 1
  TEMPOENVLOCKMODE 1
  ITEMMIX 0
  DEFPITCHMODE 589824 0
  TAKELANE 1
  SAMPLERATE 44100 0 0
  <RENDER_CFG
    bDNwbUAAAAAAAAAAAgAAAP////8EAAAAQAAAAAAAAAA=
  >
  LOCK 1
  <METRONOME 6 2
    VOL 0.25 0.125
    FREQ 800 1600 1
    BEATLEN 4
    SAMPLES "" ""
    PATTERN 2863311530 2863311513
    MULT 1
  >
  GLOBAL_AUTO -1
  TEMPO 92 4 4
  PLAYRATE 1 0 0.25 4
  SELECTION 0 0
  SELECTION2 0 0
  MASTERAUTOMODE 0
  MASTERTRACKHEIGHT 0 0
  MASTERPEAKCOL 16576
  MASTERMUTESOLO 0
  MASTERTRACKVIEW 0 0.6667 0.5 0.5 0 -1 0 0 0 0 -1 -1 0 0
  MASTERHWOUT 0 0 1 0 0 0 0 -1
  MASTER_NCH 2 2
  MASTER_VOLUME 1 0 -1 -1 1
  MASTER_FX 1
  MASTER_SEL 0
  <MASTERPLAYSPEEDENV
    EGUID {C8F8CE4F-DF8E-4BCB-8815-EF09BA968D66}
    ACT 0 -1
    VIS 0 1 1
    LANEHEIGHT 0 0
    ARM 0
    DEFSHAPE 0 -1 -1
  >
  <TEMPOENVEX
    EGUID {ECA9D05A-1DDC-49AC-B9A0-A28400DB8E61}
    ACT 1 -1
    VIS 1 0 1
    LANEHEIGHT 0 0
    ARM 0
    DEFSHAPE 1 -1 -1
    PT 0.000000000000 106.0000000000 1
  >
  MARKER 9 0 "You Are The Rock" 1 25231359 1 B {67CB687B-2850-47BA-8103-CCF0B3E21C6A} 0
  MARKER 9 9.05660377358491 "" 1
  MARKER 1 9.05660377358491 Intro 1 16842751 1 B {23D4AD36-CAC5-4E46-A8DD-A4B231959709} 0
  MARKER 1 27.1698113207547 "" 1
  MARKER 2 27.1698113207547 Verse 1 25166079 1 B {E2382CE6-0614-4302-A510-90FAE1800B40} 0
  MARKER 2 45.28301886792454 "" 1
  MARKER 3 45.28301886792454 Verse 1 25166079 1 B {A287CD53-B2EF-44D2-AFE3-0D490B6C4B68} 0
  MARKER 3 63.39622641509435 "" 1
  MARKER 4 63.39622641509435 Chorus 1 33521728 1 B {93392E7C-1363-41F5-B2AD-7FF06AABC9DB} 0
  MARKER 4 81.50943396226417 "" 1
  MARKER 10 81.50943396226417 Chorus 1 33521728 1 B {5F80F315-97A9-41F5-ACC9-3546A90EE020} 0
  MARKER 10 99.62264150943398 "" 1
  MARKER 5 99.62264150943398 Instrumenal 1 16842560 1 B {9BFD71B5-0127-4452-8DC9-8D94EB06A1DF} 0
  MARKER 5 117.73584905660377 "" 1
  MARKER 6 117.73584905660377 "Verse Rus" 1 20971648 1 B {7FECCDC8-3EE1-4330-9012-4627FC1AF9B0} 0
  MARKER 6 135.84905660377359 "" 1
  MARKER 11 135.84905660377359 "Verse Rus" 1 20971648 1 B {BF60A757-1D1A-4020-B608-77F6DCB44233} 0
  MARKER 11 153.96226415094341 "" 1
  MARKER 7 153.96226415094341 Chorus 1 33521728 1 B {683B153F-DA2C-4519-B269-F138B1CEED66} 0
  MARKER 7 172.07547169811323 "" 1
  MARKER 8 172.07547169811323 Chorus 1 33521728 1 B {E5DC2A55-4B0D-4B12-B4E0-0ADCEBB492D8} 0
  MARKER 8 190.18867924528291 "" 1
  MARKER 13 190.18867924528303 Refrein 1 16842496 1 B {800A0F34-976D-47AA-9702-C86EA6007C38} 0
  MARKER 13 199.24528301886792 "" 1
  MARKER 12 199.24528301886792 Outro 1 16842751 1 B {DEED93B1-AE8B-4765-89D6-C1E40B6DC43E} 0
  MARKER 12 208.30188679245282 "" 1
  <PROJBAY
  >
  <TRACK {AE9D8DB0-2C04-4550-9754-CD3D7B92B1C7}
    NAME Click
    PEAKCOL 33521664
    BEAT -1
    AUTOMODE 0
    VOLPAN 1 0 -1 -1 1
    MUTESOLO 0 0 0
    IPHASE 0
    PLAYOFFS 0 1
    ISBUS 0 0
    BUSCOMP 0 0 0 0 0
    SHOWINMIX 1 0.6667 0.5 1 0.5 0 -1 0
    SEL 1
    REC 0 0 1 0 0 0 0 0
    VU 2
    TRACKHEIGHT 260 0 0 0 0 0 0
    INQ 0 0 0 0.5 100 0 0 100
    NCHAN 2
    FX 1
    TRACKID {AE9D8DB0-2C04-4550-9754-CD3D7B92B1C7}
    PERF 0
    MIDIOUT -1
    MAINSEND 1 0
    MAINSEND_NCH 1
    <ITEM
      POSITION 0
      SNAPOFFS 0
      LENGTH 208.30188679245282
      LOOP 1
      ALLTAKES 0
      FADEIN 1 0 0 1 0 0 0
      FADEOUT 1 0.01 0 1 0 0 0
      MUTE 0 0
      SEL 1
      IGUID {F40288EA-7FC8-4F7D-BF19-BD755E81A6CC}
      IID 2208
      NAME "Click source"
      VOLPAN 1 0 1 -1
      SOFFS 0
      PLAYRATE 1 1 0 -1 0 0.0025
      CHANMODE 0
      GUID {03FF2EE2-3801-4E6A-83D4-DDE3A345726C}
      <SOURCE CLICK
        AUTO 0
        BPM 212
        BPI 4
        VOL 1 1
        FREQ 800 1600 1
        BEATLEN 4
        SAMPLES "/home/butbkadrug/Music/Assets/Clicks/New Click -  Blip-accents.wav" "/home/butbkadrug/Music/Assets/Clicks/New Click -  Blip-sixteenth.wav"
        PATTERN 2863311530 2863311513
        MULT 1
      >
    >
  >
  <TRACK {8D1FD7C2-9D8F-43F1-A498-BF58EA548396}
    NAME Cues
    PEAKCOL 33521664
    BEAT -1
    AUTOMODE 0
    VOLPAN 1 0 -1 -1 1
    MUTESOLO 0 0 0
    IPHASE 0
    PLAYOFFS 0 1
    ISBUS 2 -1
    BUSCOMP 0 0 0 0 0
    SHOWINMIX 1 0.6667 0.5 1 0.5 0 -1 0
    SEL 0
    REC 0 0 1 0 0 0 0 0
    VU 2
    TRACKHEIGHT 181 0 0 0 0 0 0
    INQ 0 0 0 0.5 100 0 0 100
    NCHAN 2
    FX 1
    TRACKID {8D1FD7C2-9D8F-43F1-A498-BF58EA548396}
    PERF 0
    MIDIOUT -1
    MAINSEND 1 1
    MAINSEND_NCH 1
    <ITEM
      POSITION 4.52830188679246
      SNAPOFFS 0
      LENGTH 193.58490566037736
      LOOP 1
      ALLTAKES 0
      FADEIN 1 0.008679 0 1 0 0 0
      FADEOUT 1 0.01 0 1 0 0 0
      MUTE 0 0
      SEL 0
      IGUID {F9DFD8E6-70AC-4AFE-8D29-9FF532DF8AFD}
      IID 68
      NAME "English Female - 1-glued.wav"
      VOLPAN 1 0 1 -1
      SOFFS 0
      PLAYRATE 1 1 0 -1 0 0.0025
      CHANMODE 3
      GUID {A0AC7EAA-0D00-4D6D-B528-06D534699244}
      <SOURCE WAVE
        FILE "English Female - 1-glued.wav"
      >
    >
  >
  <TRACK {13C305A9-EBE2-4231-A835-AE53A84B3694}
    NAME "Bass - stem"
    PEAKCOL 25231104
    BEAT -1
    AUTOMODE 0
    VOLPAN 0.71844484029759 0 -1 -1 1
    MUTESOLO 1 0 0
    IPHASE 0
    PLAYOFFS 0 1
    ISBUS 0 0
    BUSCOMP 0 0 0 0 0
    SHOWINMIX 1 0.6667 0.5 1 0.5 -1 -1 -1
    SEL 0
    REC 0 0 1 0 0 0 0 0
    VU 2
    TRACKHEIGHT 128 0 0 0 0 0 0
    INQ 0 0 0 0.5 100 0 0 100
    NCHAN 2
    FX 1
    TRACKID {13C305A9-EBE2-4231-A835-AE53A84B3694}
    PERF 0
    MIDIOUT -1
    MAINSEND 0 0
    HWOUT 1027 0 1 0 0 0 0 -1:U -1
    <FXCHAIN
      WNDRECT 24 52 723 521
      SHOW 0
      LASTSEL 0
      DOCKED 0
      BYPASS 0 0 0
      <VST "VST: ReaPitch (Cockos)" reapitch.vst.so 0 "" 1919250531<56535472657063726561706974636800> ""
        Y3Blcu5e7f4CAAAAAQAAAAAAAAACAAAAAAAAAAIAAAABAAAAAAAAAAIAAAAAAAAATAAAAAEAAAAAABAA
        AAAAAP////8BAAAALAAAAAIAAAAAAAAAAACAPwAAAAAAAAAAAACAP1VVBT8AAAA/AAAAPwAAAD8AAAA/AAAAPwAAAD8AAIA/AAAAPw==
        AFByb2dyYW0gMQAQAAAA
      >
      FLOATPOS 0 0 0 0
      FXID {1AAE97F5-DE8D-4928-B876-E5DB72A58A9E}
      WAK 0 0
    >
    <ITEM
      POSITION 0
      SNAPOFFS 0
      LENGTH 199.24528301886792
      LOOP 0
      ALLTAKES 0
      FADEIN 1 0 0 1 0 0 0
      FADEOUT 1 0.01 0 1 0 0 0
      MUTE 0 0
      SEL 0
      IGUID {B0AD737B-A8F7-4A27-99BA-855AFF9B9670}
      IID 2486
      NAME "Bass - stem"
      VOLPAN 1 0 1 -1
      SOFFS 0
      PLAYRATE 1 1 0 -1 0 0.0025
      CHANMODE 0
      GUID {AE4BB517-3D10-4FD1-83F7-09588160AC2C}
      <SOURCE WAVE
        FILE "You Are The Rock_stems_Bass.wav"
      >
    >
    <ITEM
      POSITION 199.24528301886792
      SNAPOFFS 0
      LENGTH 9.0566037735849
      LOOP 0
      ALLTAKES 0
      FADEIN 1 0.01 0 1 0 0 0
      FADEOUT 1 0 0 1 0 0 0
      MUTE 0 0
      SEL 0
      IGUID {8DFD7083-6AAE-4C24-9717-41F62F5B5CF3}
      IID 2
      NAME "Bass - stem"
      VOLPAN 1 0 1 -1
      SOFFS 208.30188679245282
      PLAYRATE 1 1 0 -1 0 0.0025
      CHANMODE 0
      GUID {5DFA4C25-E3CE-4C24-832F-55BDECFD7926}
      <SOURCE WAVE
        FILE "You Are The Rock_stems_Bass.wav"
      >
    >
  >
  <TRACK {77AFCCC3-A08A-45A3-9D24-99E1182115BD}
    NAME "EG - stem"
    PEAKCOL 33554431
    BEAT -1
    AUTOMODE 0
    VOLPAN 1 0 -1 -1 1
    MUTESOLO 1 0 0
    IPHASE 0
    PLAYOFFS 0 1
    ISBUS 0 0
    BUSCOMP 0 0 0 0 0
    SHOWINMIX 1 0.6667 0.5 1 0.5 -1 -1 -1
    SEL 0
    REC 0 0 1 0 0 0 0 0
    VU 2
    TRACKHEIGHT 106 0 0 0 0 0 0
    INQ 0 0 0 0.5 100 0 0 100
    NCHAN 2
    FX 1
    TRACKID {77AFCCC3-A08A-45A3-9D24-99E1182115BD}
    PERF 0
    MIDIOUT -1
    MAINSEND 1 0
    <FXCHAIN
      WNDRECT 24 52 723 521
      SHOW 0
      LASTSEL 0
      DOCKED 0
      BYPASS 0 0 0
      <VST "VST: ReaPitch (Cockos)" reapitch.vst.so 0 "" 1919250531<56535472657063726561706974636800> ""
        Y3Blcu5e7f4CAAAAAQAAAAAAAAACAAAAAAAAAAIAAAABAAAAAAAAAAIAAAAAAAAATAAAAAEAAAAAABAA
        AAAAAP////8BAAAALAAAAAIAAAAAAAAAAACAPwAAAAAAAAAAAACAP1VVBT8AAAA/AAAAPwAAAD8AAAA/AAAAPwAAAD8AAIA/AAAAPw==
        AFByb2dyYW0gMQAQAAAA
      >
      FLOATPOS 0 0 0 0
      FXID {3884D8FE-9BA0-4059-9A78-DBFF7F6D3C84}
      WAK 0 0
    >
    <ITEM
      POSITION 0
      SNAPOFFS 0
      LENGTH 199.24528301886792
      LOOP 0
      ALLTAKES 0
      FADEIN 1 0 0 1 0 0 0
      FADEOUT 1 0.01 0 1 0 0 0
      MUTE 0 0
      SEL 0
      IGUID {92C6579B-D64A-4052-9F9D-3AD977E3F92B}
      IID 2485
      NAME "EG - stem"
      VOLPAN 1 0 1 -1
      SOFFS 0
      PLAYRATE 1 1 0 -1 0 0.0025
      CHANMODE 0
      GUID {37FAA1AC-791D-446C-9A6E-FD0978F1763F}
      <SOURCE WAVE
        FILE "You Are The Rock_stems_EG.wav"
      >
    >
    <ITEM
      POSITION 199.24528301886792
      SNAPOFFS 0
      LENGTH 9.0566037735849
      LOOP 0
      ALLTAKES 0
      FADEIN 1 0.01 0 1 0 0 0
      FADEOUT 1 0 0 1 0 0 0
      MUTE 0 0
      SEL 0
      IGUID {33BD5F04-BB43-40B9-97B0-FB2B9AB34D45}
      IID 3
      NAME "EG - stem"
      VOLPAN 1 0 1 -1
      SOFFS 208.30188679245282
      PLAYRATE 1 1 0 -1 0 0.0025
      CHANMODE 0
      GUID {B2ABBC13-E720-4B4A-8925-A84362AD6572}
      <SOURCE WAVE
        FILE "You Are The Rock_stems_EG.wav"
      >
    >
  >
  <TRACK {C17B532E-2451-4A3A-BB19-A44D512518D7}
    NAME E-Drummer
    PEAKCOL 16576
    BEAT -1
    AUTOMODE 0
    VOLPAN 1 0 -1 -1 1
    MUTESOLO 1 0 0
    IPHASE 0
    PLAYOFFS 0 1
    ISBUS 0 0
    BUSCOMP 0 0 0 0 0
    SHOWINMIX 1 0.6667 0.5 1 0.5 -1 -1 -1
    SEL 0
    REC 0 0 1 0 0 0 0 0
    VU 2
    TRACKHEIGHT 0 0 0 0 0 0 0
    INQ 0 0 0 0.5 100 0 0 100
    NCHAN 2
    FX 1
    TRACKID {C17B532E-2451-4A3A-BB19-A44D512518D7}
    PERF 0
    MIDIOUT -1
    MAINSEND 1 0
    <ITEM
      POSITION 8.49056603773585
      SNAPOFFS 0
      LENGTH 199.81132075471697
      LOOP 1
      ALLTAKES 0
      FADEIN 1 0 0 1 0 0 0
      FADEOUT 1 0 0 1 0 0 0
      MUTE 0 0
      SEL 0
      IGUID {30546393-A8E6-4E96-BEE9-F8725A5BE471}
      IID 2197
      NAME "SSDSampler5 untitled MIDI item-glued"
      VOLPAN 1 0 1 -1
      SOFFS 0 0
      PLAYRATE 1 1 0 -1 0 0.0025
      CHANMODE 0
      GUID {EEF91640-0119-462E-A402-7863EF7E4D68}
      <SOURCE MIDI
        HASDATA 1 960 QN
        CCINTERP 32
        POOLEDEVTS {4DD5E69B-3B1C-42BF-8EB8-A9B45F037AA8}
        E 0 90 26 41
        E 120 80 26 00
        E 360 90 26 3b
        E 120 80 26 00
        E 360 90 24 7f
        E 0 90 37 7f
        E 120 80 24 00
        E 0 80 37 00
        E 840 90 34 7f
        E 120 80 34 00
        E 360 90 26 7f
        E 120 80 26 00
        E 360 90 34 7f
        E 120 80 34 00
        E 360 90 24 7f
        E 120 80 24 00
        E 360 90 34 7f
        E 0 90 26 7f
        E 120 80 34 00
        E 0 80 26 00
        E 840 90 24 7f
        E 0 90 34 7f
        E 120 80 24 00
        E 0 80 34 00
        E 840 90 34 7f
        E 120 80 34 00
        E 360 90 26 7f
        E 120 80 26 00
        E 360 90 34 7f
        E 120 80 34 00
        E 360 90 24 7f
        E 120 80 24 00
        E 360 90 34 7f
        E 0 90 26 7f
        E 120 80 34 00
        E 0 80 26 00
        E 840 90 24 7f
        E 0 90 34 7f
        E 120 80 24 00
        E 0 80 34 00
        E 840 90 34 7f
        E 120 80 34 00
        E 360 90 26 7f
        E 120 80 26 00
        E 360 90 34 7f
        E 120 80 34 00
        E 360 90 24 7f
        E 120 80 24 00
        E 360 90 34 7f
        E 0 90 26 7f
        E 120 80 34 00
        E 0 80 26 00
        E 840 90 24 7f
        E 0 90 34 7f
        E 120 80 24 00
        E 0 80 34 00
        E 840 90 34 7f
        E 120 80 34 00
        E 360 90 26 7f
        E 120 80 26 00
        E 360 90 34 7f
        E 120 80 34 00
        E 360 90 24 7f
        E 120 80 24 00
        E 360 90 34 7f
        E 0 90 26 7f
        E 120 80 34 00
        E 0 80 26 00
        E 840 90 24 7f
        E 0 90 34 7f
        E 120 80 24 00
        E 0 80 34 00
        E 840 90 34 7f
        E 120 80 34 00
        E 360 90 26 7f
        E 120 80 26 00
        E 360 90 34 7f
        E 120 80 34 00
        E 360 90 24 7f
        E 120 80 24 00
        E 360 90 34 7f
        E 0 90 26 7f
        E 120 80 34 00
        E 0 80 26 00
        E 840 90 24 7f
        E 0 90 34 7f
        E 120 80 24 00
        E 0 80 34 00
        E 840 90 34 7f
        E 120 80 34 00
        E 360 90 26 7f
        E 120 80 26 00
        E 360 90 34 7f
        E 120 80 34 00
        E 360 90 24 7f
        E 120 80 24 00
        E 360 90 34 7f
        E 0 90 26 7f
        E 120 80 34 00
        E 0 80 26 00
        E 960 80 24 00
        E 0 80 34 00
        E 840 90 34 7f
        E 120 80 34 00
        E 360 90 26 7f
        E 120 80 26 00
        E 360 90 34 7f
        E 120 80 34 00
        E 360 90 24 7f
        E 120 80 24 00
        E 360 90 34 7f
        E 0 90 26 7f
        E 120 80 34 00
        E 0 80 26 00
        E 840 90 24 7f
        E 0 90 26 7f
        E 0 90 29 7f
        E 120 80 24 00
        E 0 80 26 00
        E 0 80 29 00
        E 600 90 24 7f
        E 0 90 26 7f
        E 0 90 29 7f
        E 120 80 24 00
        E 0 80 26 00
        E 0 80 29 00
        E 600 90 26 7f
        E 0 90 24 7f
        E 0 90 29 7f
        E 120 80 26 00
        E 0 80 24 00
        E 0 80 29 00
        E 1320 90 2d 6b
        E 120 80 2d 00
        E 360 90 29 62
        E 120 80 29 00
        E 360 90 24 7f
        E 0 90 3d 43
        E 120 80 24 00
        E 0 80 3d 00
        E 840 90 3d 43
        E 120 80 3d 00
        E 360 90 25 7f
        E 120 80 25 00
        E 360 90 3d 43
        E 120 80 3d 00
        E 360 90 24 7f
        E 120 80 24 00
        E 360 90 3d 43
        E 0 90 25 7f
        E 120 80 3d 00
        E 0 80 25 00
        E 840 90 24 7f
        E 0 90 3d 43
        E 120 80 24 00
        E 0 80 3d 00
        E 840 90 3d 43
        E 120 80 3d 00
        E 360 90 25 7f
        E 120 80 25 00
        E 360 90 3d 43
        E 120 80 3d 00
        E 360 90 24 7f
        E 120 80 24 00
        E 360 90 3d 43
        E 0 90 25 7f
        E 120 80 3d 00
        E 0 80 25 00
        E 840 90 24 7f
        E 0 90 3d 43
        E 120 80 24 00
        E 0 80 3d 00
        E 840 90 3d 43
        E 120 80 3d 00
        E 360 90 25 7f
        E 120 80 25 00
        E 360 90 3d 43
        E 120 80 3d 00
        E 360 90 24 7f
        E 120 80 24 00
        E 360 90 3d 43
        E 0 90 25 7f
        E 120 80 3d 00
        E 0 80 25 00
        E 840 90 24 7f
        E 0 90 3d 43
        E 120 80 24 00
        E 0 80 3d 00
        E 840 90 3d 43
        E 120 80 3d 00
        E 360 90 25 7f
        E 120 80 25 00
        E 360 90 3d 43
        E 120 80 3d 00
        E 360 90 24 7f
        E 120 80 24 00
        E 360 90 3d 43
        E 0 90 25 7f
        E 120 80 3d 00
        E 0 80 25 00
        E 840 90 24 7f
        E 0 90 3d 43
        E 120 80 24 00
        E 0 80 3d 00
        E 840 90 3d 43
        E 120 80 3d 00
        E 360 90 25 7f
        E 120 80 25 00
        E 360 90 3d 43
        E 120 80 3d 00
        E 360 90 24 7f
        E 120 80 24 00
        E 360 90 3d 43
        E 0 90 25 7f
        E 120 80 3d 00
        E 0 80 25 00
        E 840 90 24 7f
        E 0 90 3d 43
        E 120 80 24 00
        E 0 80 3d 00
        E 840 90 3d 43
        E 120 80 3d 00
        E 360 90 25 7f
        E 120 80 25 00
        E 360 90 3d 43
        E 120 80 3d 00
        E 360 90 24 7f
        E 120 80 24 00
        E 360 90 3d 43
        E 0 90 25 7f
        E 120 80 3d 00
        E 0 80 25 00
        E 840 90 24 7f
        E 0 90 3d 43
        E 120 80 24 00
        E 0 80 3d 00
        E 840 90 3d 43
        E 120 80 3d 00
        E 360 90 25 7f
        E 120 80 25 00
        E 360 90 3d 43
        E 120 80 3d 00
        E 360 90 24 7f
        E 120 80 24 00
        E 360 90 3d 43
        E 0 90 25 7f
        E 120 80 3d 00
        E 0 80 25 00
        E 840 90 24 7f
        E 0 90 3d 43
        E 120 80 24 00
        E 0 80 3d 00
        E 840 90 3d 43
        E 120 80 3d 00
        E 360 90 25 7f
        E 120 80 25 00
        E 360 90 3d 43
        E 120 80 3d 00
        E 360 90 24 7f
        E 120 80 24 00
        E 360 90 3d 43
        E 0 90 25 7f
        E 120 80 3d 00
        E 0 80 25 00
        E 840 90 24 7f
        E 0 90 3d 43
        E 120 80 24 00
        E 0 80 3d 00
        E 840 90 3d 43
        E 120 80 3d 00
        E 360 90 25 7f
        E 120 80 25 00
        E 360 90 3d 43
        E 120 80 3d 00
        E 360 90 24 7f
        E 120 80 24 00
        E 360 90 3d 43
        E 0 90 25 7f
        E 120 80 3d 00
        E 0 80 25 00
        E 840 90 24 7f
        E 0 90 3d 43
        E 120 80 24 00
        E 0 80 3d 00
        E 840 90 3d 43
        E 120 80 3d 00
        E 360 90 25 7f
        E 120 80 25 00
        E 360 90 3d 43
        E 120 80 3d 00
        E 360 90 24 7f
        E 120 80 24 00
        E 360 90 3d 43
        E 0 90 25 7f
        E 120 80 3d 00
        E 0 80 25 00
        E 840 90 24 7f
        E 0 90 3d 43
        E 120 80 24 00
        E 0 80 3d 00
        E 840 90 3d 43
        E 120 80 3d 00
        E 360 90 25 7f
        E 120 80 25 00
        E 360 90 3d 43
        E 120 80 3d 00
        E 360 90 24 7f
        E 120 80 24 00
        E 360 90 3d 43
        E 0 90 25 7f
        E 120 80 3d 00
        E 0 80 25 00
        E 840 90 24 7f
        E 0 90 3d 43
        E 120 80 24 00
        E 0 80 3d 00
        E 840 90 3d 43
        E 120 80 3d 00
        E 360 90 25 7f
        E 120 80 25 00
        E 360 90 3d 43
        E 120 80 3d 00
        E 360 90 24 7f
        E 120 80 24 00
        E 360 90 3d 43
        E 0 90 25 7f
        E 120 80 3d 00
        E 0 80 25 00
        E 840 90 24 7f
        E 0 90 3d 43
        E 120 80 24 00
        E 0 80 3d 00
        E 840 90 3d 43
        E 120 80 3d 00
        E 360 90 25 7f
        E 120 80 25 00
        E 360 90 3d 43
        E 120 80 3d 00
        E 360 90 24 7f
        E 120 80 24 00
        E 360 90 3d 43
        E 0 90 25 7f
        E 120 80 3d 00
        E 0 80 25 00
        E 840 90 24 7f
        E 0 90 3d 43
        E 120 80 24 00
        E 0 80 3d 00
        E 840 90 3d 43
        E 120 80 3d 00
        E 360 90 25 7f
        E 120 80 25 00
        E 360 90 3d 43
        E 120 80 3d 00
        E 360 90 24 7f
        E 120 80 24 00
        E 360 90 3d 43
        E 0 90 25 7f
        E 120 80 3d 00
        E 0 80 25 00
        E 840 90 24 7f
        E 0 90 3d 43
        E 120 80 24 00
        E 0 80 3d 00
        E 840 90 3d 43
        E 120 80 3d 00
        E 360 90 25 7f
        E 120 80 25 00
        E 360 90 3d 43
        E 120 80 3d 00
        E 360 90 24 7f
        E 120 80 24 00
        E 360 90 3d 43
        E 0 90 25 7f
        E 120 80 3d 00
        E 0 80 25 00
        E 840 90 24 7f
        E 0 90 3d 43
        E 120 80 24 00
        E 0 80 3d 00
        E 840 90 3d 43
        E 120 80 3d 00
        E 360 90 25 7f
        E 120 80 25 00
        E 360 90 3d 43
        E 120 80 3d 00
        E 360 90 24 7f
        E 120 80 24 00
        E 360 90 3d 43
        E 0 90 25 7f
        E 120 80 3d 00
        E 0 80 25 00
        E 840 90 24 7f
        E 0 90 3e 43
        E 120 80 24 00
        E 0 80 3e 00
        E 840 90 3e 43
        E 120 80 3e 00
        E 360 90 26 62
        E 120 80 26 00
        E 360 90 3e 43
        E 120 80 3e 00
        E 360 90 24 7f
        E 120 80 24 00
        E 360 90 3e 43
        E 0 90 26 62
        E 120 80 3e 00
        E 0 80 26 00
        E 840 90 24 7f
        E 0 90 3e 43
        E 120 80 24 00
        E 0 80 3e 00
        E 840 90 3e 43
        E 120 80 3e 00
        E 360 90 26 62
        E 120 80 26 00
        E 360 90 3e 43
        E 120 80 3e 00
        E 360 90 24 7f
        E 120 80 24 00
        E 360 90 3e 43
        E 0 90 26 62
        E 120 80 3e 00
        E 0 80 26 00
        E 840 90 24 7f
        E 0 90 3e 43
        E 120 80 24 00
        E 0 80 3e 00
        E 840 90 3e 43
        E 120 80 3e 00
        E 360 90 26 62
        E 120 80 26 00
        E 360 90 3e 43
        E 120 80 3e 00
        E 360 90 24 7f
        E 120 80 24 00
        E 360 90 3e 43
        E 0 90 26 62
        E 120 80 3e 00
        E 0 80 26 00
        E 840 90 24 7f
        E 0 90 3e 43
        E 120 80 24 00
        E 0 80 3e 00
        E 840 90 3e 43
        E 120 80 3e 00
        E 360 90 26 62
        E 120 80 26 00
        E 360 90 3e 43
        E 120 80 3e 00
        E 360 90 24 7f
        E 120 80 24 00
        E 360 90 3e 43
        E 0 90 26 62
        E 120 80 3e 00
        E 0 80 26 00
        E 840 90 24 7f
        E 0 90 3e 43
        E 120 80 24 00
        E 0 80 3e 00
        E 840 90 3e 43
        E 120 80 3e 00
        E 360 90 26 62
        E 120 80 26 00
        E 360 90 3e 43
        E 120 80 3e 00
        E 360 90 24 7f
        E 120 80 24 00
        E 360 90 3e 43
        E 0 90 26 62
        E 120 80 3e 00
        E 0 80 26 00
        E 840 90 24 7f
        E 0 90 3e 43
        E 120 80 24 00
        E 0 80 3e 00
        E 840 90 3e 43
        E 120 80 3e 00
        E 360 90 26 62
        E 120 80 26 00
        E 360 90 3e 43
        E 120 80 3e 00
        E 360 90 24 7f
        E 120 80 24 00
        E 360 90 3e 43
        E 0 90 26 62
        E 120 80 3e 00
        E 0 80 26 00
        E 840 90 24 7f
        E 0 90 3e 43
        E 120 80 24 00
        E 0 80 3e 00
        E 840 90 3e 43
        E 120 80 3e 00
        E 360 90 26 62
        E 120 80 26 00
        E 360 90 3e 43
        E 120 80 3e 00
        E 360 90 24 7f
        E 120 80 24 00
        E 360 90 3e 43
        E 0 90 26 62
        E 120 80 3e 00
        E 0 80 26 00
        E 840 90 24 7f
        E 0 90 3e 43
        E 120 80 24 00
        E 0 80 3e 00
        E 840 90 3e 43
        E 120 80 3e 00
        E 360 90 26 62
        E 120 80 26 00
        E 360 90 3e 43
        E 120 80 3e 00
        E 360 90 24 7f
        E 120 80 24 00
        E 360 90 3e 43
        E 0 90 26 62
        E 120 80 3e 00
        E 0 80 26 00
        E 840 90 24 7f
        E 0 90 3e 43
        E 120 80 24 00
        E 0 80 3e 00
        E 840 90 3e 43
        E 120 80 3e 00
        E 360 90 26 62
        E 120 80 26 00
        E 360 90 3e 43
        E 120 80 3e 00
        E 360 90 24 7f
        E 120 80 24 00
        E 360 90 3e 43
        E 0 90 26 62
        E 120 80 3e 00
        E 0 80 26 00
        E 840 90 24 7f
        E 0 90 3e 43
        E 120 80 24 00
        E 0 80 3e 00
        E 840 90 3e 43
        E 120 80 3e 00
        E 360 90 26 62
        E 120 80 26 00
        E 360 90 3e 43
        E 120 80 3e 00
        E 360 90 24 7f
        E 120 80 24 00
        E 360 90 3e 43
        E 0 90 26 62
        E 120 80 3e 00
        E 0 80 26 00
        E 840 90 24 7f
        E 0 90 3e 43
        E 120 80 24 00
        E 0 80 3e 00
        E 840 90 3e 43
        E 120 80 3e 00
        E 360 90 26 62
        E 120 80 26 00
        E 360 90 3e 43
        E 120 80 3e 00
        E 360 90 24 7f
        E 120 80 24 00
        E 360 90 3e 43
        E 0 90 26 62
        E 120 80 3e 00
        E 0 80 26 00
        E 840 90 24 7f
        E 0 90 3e 43
        E 120 80 24 00
        E 0 80 3e 00
        E 840 90 3e 43
        E 120 80 3e 00
        E 360 90 26 62
        E 120 80 26 00
        E 360 90 3e 43
        E 120 80 3e 00
        E 360 90 24 7f
        E 120 80 24 00
        E 360 90 3e 43
        E 0 90 26 62
        E 120 80 3e 00
        E 0 80 26 00
        E 840 90 24 7f
        E 0 90 3e 43
        E 120 80 24 00
        E 0 80 3e 00
        E 840 90 3e 43
        E 120 80 3e 00
        E 360 90 26 62
        E 120 80 26 00
        E 360 90 3e 43
        E 120 80 3e 00
        E 360 90 24 7f
        E 120 80 24 00
        E 360 90 3e 43
        E 0 90 26 62
        E 120 80 3e 00
        E 0 80 26 00
        E 840 90 24 7f
        E 0 90 3e 43
        E 120 80 24 00
        E 0 80 3e 00
        E 840 90 3e 43
        E 120 80 3e 00
        E 360 90 26 62
        E 120 80 26 00
        E 360 90 3e 43
        E 120 80 3e 00
        E 360 90 24 7f
        E 120 80 24 00
        E 360 90 3e 43
        E 0 90 26 62
        E 120 80 3e 00
        E 0 80 26 00
        E 840 90 24 7f
        E 0 90 3e 43
        E 120 80 24 00
        E 0 80 3e 00
        E 840 90 3e 43
        E 120 80 3e 00
        E 360 90 26 62
        E 120 80 26 00
        E 360 90 3e 43
        E 120 80 3e 00
        E 360 90 24 7f
        E 120 80 24 00
        E 360 90 3e 43
        E 0 90 26 62
        E 120 80 3e 00
        E 0 80 26 00
        E 840 90 24 7f
        E 0 90 3e 43
        E 120 80 24 00
        E 0 80 3e 00
        E 840 90 3e 43
        E 120 80 3e 00
        E 360 90 26 62
        E 120 80 26 00
        E 360 90 3e 43
        E 120 80 3e 00
        E 360 90 24 7f
        E 120 80 24 00
        E 360 90 3e 43
        E 0 90 26 62
        E 120 80 3e 00
        E 0 80 26 00
        E 840 90 24 7f
        E 0 90 37 7f
        E 120 80 24 00
        E 0 80 37 00
        E 840 90 34 7f
        E 120 80 34 00
        E 360 90 26 7f
        E 120 80 26 00
        E 360 90 34 7f
        E 120 80 34 00
        E 360 90 24 7f
        E 120 80 24 00
        E 360 90 34 7f
        E 0 90 26 7f
        E 120 80 34 00
        E 0 80 26 00
        E 840 90 24 7f
        E 0 90 34 7f
        E 120 80 24 00
        E 0 80 34 00
        E 840 90 34 7f
        E 120 80 34 00
        E 360 90 26 7f
        E 120 80 26 00
        E 360 90 34 7f
        E 120 80 34 00
        E 360 90 24 7f
        E 120 80 24 00
        E 360 90 34 7f
        E 0 90 26 7f
        E 120 80 34 00
        E 0 80 26 00
        E 840 90 24 7f
        E 0 90 34 7f
        E 120 80 24 00
        E 0 80 34 00
        E 840 90 34 7f
        E 120 80 34 00
        E 360 90 26 7f
        E 120 80 26 00
        E 360 90 34 7f
        E 120 80 34 00
        E 360 90 24 7f
        E 120 80 24 00
        E 360 90 34 7f
        E 0 90 26 7f
        E 120 80 34 00
        E 0 80 26 00
        E 840 90 24 7f
        E 0 90 34 7f
        E 120 80 24 00
        E 0 80 34 00
        E 840 90 34 7f
        E 120 80 34 00
        E 360 90 26 7f
        E 120 80 26 00
        E 360 90 34 7f
        E 120 80 34 00
        E 360 90 24 7f
        E 120 80 24 00
        E 360 90 34 7f
        E 0 90 26 7f
        E 120 80 34 00
        E 0 80 26 00
        E 840 90 24 7f
        E 0 90 34 7f
        E 120 80 24 00
        E 0 80 34 00
        E 840 90 34 7f
        E 120 80 34 00
        E 360 90 26 7f
        E 120 80 26 00
        E 360 90 34 7f
        E 120 80 34 00
        E 360 90 24 7f
        E 120 80 24 00
        E 360 90 34 7f
        E 0 90 26 7f
        E 120 80 34 00
        E 0 80 26 00
        E 840 90 24 7f
        E 0 90 34 7f
        E 120 80 24 00
        E 0 80 34 00
        E 840 90 34 7f
        E 120 80 34 00
        E 360 90 26 7f
        E 120 80 26 00
        E 360 90 34 7f
        E 120 80 34 00
        E 360 90 24 7f
        E 120 80 24 00
        E 360 90 34 7f
        E 0 90 26 7f
        E 120 80 34 00
        E 0 80 26 00
        E 960 80 24 00
        E 0 80 34 00
        E 840 90 34 7f
        E 120 80 34 00
        E 360 90 26 7f
        E 120 80 26 00
        E 360 90 34 7f
        E 120 80 34 00
        E 360 90 24 7f
        E 120 80 24 00
        E 360 90 34 7f
        E 0 90 26 7f
        E 120 80 34 00
        E 0 80 26 00
        E 840 90 24 7f
        E 0 90 26 7f
        E 0 90 29 7f
        E 120 80 24 00
        E 0 80 26 00
        E 0 80 29 00
        E 600 90 24 7f
        E 0 90 26 7f
        E 0 90 29 7f
        E 120 80 24 00
        E 0 80 26 00
        E 0 80 29 00
        E 600 90 26 7f
        E 0 90 24 7f
        E 0 90 29 7f
        E 120 80 26 00
        E 0 80 24 00
        E 0 80 29 00
        E 1320 90 2d 6b
        E 120 80 2d 00
        E 360 90 29 62
        E 120 80 29 00
        E 360 90 24 7f
        E 0 90 3d 43
        E 120 80 24 00
        E 0 80 3d 00
        E 840 90 3d 43
        E 120 80 3d 00
        E 360 90 26 7f
        E 120 80 26 00
        E 360 90 3d 43
        E 120 80 3d 00
        E 360 90 24 7f
        E 120 80 24 00
        E 360 90 3d 43
        E 0 90 26 7f
        E 120 80 3d 00
        E 0 80 26 00
        E 840 90 24 7f
        E 0 90 3d 43
        E 120 80 24 00
        E 0 80 3d 00
        E 840 90 3d 43
        E 120 80 3d 00
        E 360 90 26 7f
        E 120 80 26 00
        E 360 90 3d 43
        E 120 80 3d 00
        E 360 90 24 7f
        E 120 80 24 00
        E 360 90 3d 43
        E 0 90 26 7f
        E 120 80 3d 00
        E 0 80 26 00
        E 840 90 24 7f
        E 0 90 3d 43
        E 120 80 24 00
        E 0 80 3d 00
        E 840 90 3d 43
        E 120 80 3d 00
        E 360 90 26 7f
        E 120 80 26 00
        E 360 90 3d 43
        E 120 80 3d 00
        E 360 90 24 7f
        E 120 80 24 00
        E 360 90 3d 43
        E 0 90 26 7f
        E 120 80 3d 00
        E 0 80 26 00
        E 840 90 24 7f
        E 0 90 3d 43
        E 120 80 24 00
        E 0 80 3d 00
        E 840 90 3d 43
        E 120 80 3d 00
        E 360 90 26 7f
        E 120 80 26 00
        E 360 90 3d 43
        E 120 80 3d 00
        E 360 90 24 7f
        E 120 80 24 00
        E 360 90 3d 43
        E 0 90 26 7f
        E 120 80 3d 00
        E 0 80 26 00
        E 840 90 24 7f
        E 0 90 3d 43
        E 120 80 24 00
        E 0 80 3d 00
        E 840 90 3d 43
        E 120 80 3d 00
        E 360 90 26 7f
        E 120 80 26 00
        E 360 90 3d 43
        E 120 80 3d 00
        E 360 90 24 7f
        E 120 80 24 00
        E 360 90 3d 43
        E 0 90 26 7f
        E 120 80 3d 00
        E 0 80 26 00
        E 840 90 24 7f
        E 0 90 3d 43
        E 120 80 24 00
        E 0 80 3d 00
        E 840 90 3d 43
        E 120 80 3d 00
        E 360 90 26 7f
        E 120 80 26 00
        E 360 90 3d 43
        E 120 80 3d 00
        E 360 90 24 7f
        E 120 80 24 00
        E 360 90 3d 43
        E 0 90 26 7f
        E 120 80 3d 00
        E 0 80 26 00
        E 840 90 24 7f
        E 0 90 3d 43
        E 120 80 24 00
        E 0 80 3d 00
        E 840 90 3d 43
        E 120 80 3d 00
        E 360 90 26 7f
        E 120 80 26 00
        E 360 90 3d 43
        E 120 80 3d 00
        E 360 90 24 7f
        E 120 80 24 00
        E 360 90 3d 43
        E 0 90 26 7f
        E 120 80 3d 00
        E 0 80 26 00
        E 840 90 24 7f
        E 0 90 3d 43
        E 120 80 24 00
        E 0 80 3d 00
        E 840 90 3d 43
        E 120 80 3d 00
        E 360 90 26 7f
        E 120 80 26 00
        E 360 90 3d 43
        E 120 80 3d 00
        E 360 90 24 7f
        E 120 80 24 00
        E 360 90 3d 43
        E 0 90 26 7f
        E 120 80 3d 00
        E 0 80 26 00
        E 840 90 24 7f
        E 0 90 3d 43
        E 120 80 24 00
        E 0 80 3d 00
        E 840 90 3d 43
        E 120 80 3d 00
        E 360 90 26 7f
        E 120 80 26 00
        E 360 90 3d 43
        E 120 80 3d 00
        E 360 90 24 7f
        E 120 80 24 00
        E 360 90 3d 43
        E 0 90 26 7f
        E 120 80 3d 00
        E 0 80 26 00
        E 840 90 24 7f
        E 0 90 3d 43
        E 120 80 24 00
        E 0 80 3d 00
        E 840 90 3d 43
        E 120 80 3d 00
        E 360 90 26 7f
        E 120 80 26 00
        E 360 90 3d 43
        E 120 80 3d 00
        E 360 90 24 7f
        E 120 80 24 00
        E 360 90 3d 43
        E 0 90 26 7f
        E 120 80 3d 00
        E 0 80 26 00
        E 840 90 24 7f
        E 0 90 3d 43
        E 120 80 24 00
        E 0 80 3d 00
        E 840 90 3d 43
        E 120 80 3d 00
        E 360 90 26 7f
        E 120 80 26 00
        E 360 90 3d 43
        E 120 80 3d 00
        E 360 90 24 7f
        E 120 80 24 00
        E 360 90 3d 43
        E 0 90 26 7f
        E 120 80 3d 00
        E 0 80 26 00
        E 840 90 24 7f
        E 0 90 3d 43
        E 120 80 24 00
        E 0 80 3d 00
        E 840 90 3d 43
        E 120 80 3d 00
        E 360 90 26 7f
        E 120 80 26 00
        E 360 90 3d 43
        E 120 80 3d 00
        E 360 90 24 7f
        E 120 80 24 00
        E 360 90 3d 43
        E 0 90 26 7f
        E 120 80 3d 00
        E 0 80 26 00
        E 840 90 24 7f
        E 0 90 3d 43
        E 120 80 24 00
        E 0 80 3d 00
        E 840 90 3d 43
        E 120 80 3d 00
        E 360 90 26 7f
        E 120 80 26 00
        E 360 90 3d 43
        E 120 80 3d 00
        E 360 90 24 7f
        E 120 80 24 00
        E 360 90 3d 43
        E 0 90 26 7f
        E 120 80 3d 00
        E 0 80 26 00
        E 840 90 24 7f
        E 0 90 3d 43
        E 120 80 24 00
        E 0 80 3d 00
        E 840 90 3d 43
        E 120 80 3d 00
        E 360 90 26 7f
        E 120 80 26 00
        E 360 90 3d 43
        E 120 80 3d 00
        E 360 90 24 7f
        E 120 80 24 00
        E 360 90 3d 43
        E 0 90 26 7f
        E 120 80 3d 00
        E 0 80 26 00
        E 840 90 24 7f
        E 0 90 3d 43
        E 120 80 24 00
        E 0 80 3d 00
        E 840 90 3d 43
        E 120 80 3d 00
        E 360 90 26 7f
        E 120 80 26 00
        E 360 90 3d 43
        E 120 80 3d 00
        E 360 90 24 7f
        E 120 80 24 00
        E 360 90 3d 43
        E 0 90 26 7f
        E 120 80 3d 00
        E 0 80 26 00
        E 840 90 24 7f
        E 0 90 3d 43
        E 120 80 24 00
        E 0 80 3d 00
        E 840 90 3d 43
        E 120 80 3d 00
        E 360 90 26 7f
        E 120 80 26 00
        E 360 90 3d 43
        E 120 80 3d 00
        E 360 90 24 7f
        E 120 80 24 00
        E 360 90 3d 43
        E 0 90 26 7f
        E 120 80 3d 00
        E 0 80 26 00
        E 840 90 24 7f
        E 0 90 39 7f
        E 120 80 24 00
        E 0 80 39 00
        E 840 90 35 7f
        E 120 80 35 00
        E 360 90 26 7f
        E 120 80 26 00
        E 360 90 35 7f
        E 120 80 35 00
        E 360 90 24 7f
        E 120 80 24 00
        E 360 90 35 7f
        E 0 90 26 7f
        E 120 80 35 00
        E 0 80 26 00
        E 840 90 24 7f
        E 0 90 35 7f
        E 120 80 24 00
        E 0 80 35 00
        E 840 90 35 7f
        E 120 80 35 00
        E 360 90 26 7f
        E 120 80 26 00
        E 360 90 35 7f
        E 120 80 35 00
        E 360 90 24 7f
        E 120 80 24 00
        E 360 90 35 7f
        E 0 90 26 7f
        E 120 80 35 00
        E 0 80 26 00
        E 840 90 24 7f
        E 0 90 35 7f
        E 120 80 24 00
        E 0 80 35 00
        E 840 90 35 7f
        E 120 80 35 00
        E 360 90 26 7f
        E 120 80 26 00
        E 360 90 35 7f
        E 120 80 35 00
        E 360 90 24 7f
        E 120 80 24 00
        E 360 90 35 7f
        E 0 90 26 7f
        E 120 80 35 00
        E 0 80 26 00
        E 840 90 24 7f
        E 0 90 35 7f
        E 120 80 24 00
        E 0 80 35 00
        E 840 90 35 7f
        E 120 80 35 00
        E 360 90 26 7f
        E 120 80 26 00
        E 360 90 35 7f
        E 120 80 35 00
        E 360 90 24 7f
        E 120 80 24 00
        E 360 90 35 7f
        E 0 90 26 7f
        E 120 80 35 00
        E 0 80 26 00
        E 840 90 24 7f
        E 0 90 35 7f
        E 120 80 24 00
        E 0 80 35 00
        E 840 90 35 7f
        E 120 80 35 00
        E 360 90 26 7f
        E 120 80 26 00
        E 360 90 35 7f
        E 120 80 35 00
        E 360 90 24 7f
        E 120 80 24 00
        E 360 90 35 7f
        E 0 90 26 7f
        E 120 80 35 00
        E 0 80 26 00
        E 840 90 24 7f
        E 0 90 35 7f
        E 120 80 24 00
        E 0 80 35 00
        E 840 90 35 7f
        E 120 80 35 00
        E 360 90 26 7f
        E 120 80 26 00
        E 360 90 35 7f
        E 120 80 35 00
        E 360 90 24 7f
        E 120 80 24 00
        E 360 90 35 7f
        E 0 90 26 7f
        E 120 80 35 00
        E 0 80 26 00
        E 840 90 24 7f
        E 0 90 3e 7f
        E 120 80 24 00
        E 0 80 3e 00
        E 840 90 3e 7f
        E 0 90 26 7f
        E 120 80 3e 00
        E 0 80 26 00
        E 840 90 3e 7f
        E 0 90 24 7f
        E 120 80 3e 00
        E 0 80 24 00
        E 360 90 24 7f
        E 120 80 24 00
        E 360 90 3e 7f
        E 0 90 26 7f
        E 120 80 3e 00
        E 0 80 26 00
        E 840 90 24 7f
        E 0 90 3e 7f
        E 120 80 24 00
        E 0 80 3e 00
        E 840 90 3e 7f
        E 120 80 3e 00
        E 360 90 26 7f
        E 120 80 26 00
        E 360 90 3e 7f
        E 120 80 3e 00
        E 360 90 24 7f
        E 120 80 24 00
        E 360 90 3e 7f
        E 0 90 26 7f
        E 120 80 3e 00
        E 0 80 26 00
        E 360 90 26 7f
        E 120 80 26 00
        E 360 90 24 7f
        E 0 90 35 7f
        E 120 80 24 00
        E 0 80 35 00
        E 840 90 35 7f
        E 120 80 35 00
        E 360 90 26 7f
        E 120 80 26 00
        E 360 90 35 7f
        E 120 80 35 00
        E 360 90 24 7f
        E 120 80 24 00
        E 360 90 35 7f
        E 0 90 26 7f
        E 120 80 35 00
        E 0 80 26 00
        E 840 90 24 7f
        E 0 90 35 7f
        E 120 80 24 00
        E 0 80 35 00
        E 840 90 35 7f
        E 120 80 35 00
        E 360 90 26 7f
        E 120 80 26 00
        E 360 90 35 7f
        E 120 80 35 00
        E 360 90 24 7f
        E 120 80 24 00
        E 360 90 35 7f
        E 0 90 26 7f
        E 120 80 35 00
        E 0 80 26 00
        E 840 90 24 7f
        E 0 90 35 7f
        E 120 80 24 00
        E 0 80 35 00
        E 840 90 35 7f
        E 120 80 35 00
        E 360 90 26 7f
        E 120 80 26 00
        E 360 90 35 7f
        E 120 80 35 00
        E 360 90 24 7f
        E 120 80 24 00
        E 360 90 35 7f
        E 0 90 26 7f
        E 120 80 35 00
        E 0 80 26 00
        E 840 90 24 7f
        E 0 90 35 7f
        E 120 80 24 00
        E 0 80 35 00
        E 840 90 35 7f
        E 120 80 35 00
        E 360 90 26 7f
        E 120 80 26 00
        E 360 90 35 7f
        E 120 80 35 00
        E 360 90 24 7f
        E 120 80 24 00
        E 360 90 35 7f
        E 0 90 26 7f
        E 120 80 35 00
        E 0 80 26 00
        E 840 90 24 7f
        E 0 90 35 7f
        E 120 80 24 00
        E 0 80 35 00
        E 840 90 35 7f
        E 120 80 35 00
        E 360 90 26 7f
        E 120 80 26 00
        E 360 90 35 7f
        E 120 80 35 00
        E 360 90 24 7f
        E 120 80 24 00
        E 360 90 35 7f
        E 0 90 26 7f
        E 120 80 35 00
        E 0 80 26 00
        E 840 90 24 7f
        E 0 90 35 7f
        E 120 80 24 00
        E 0 80 35 00
        E 840 90 35 7f
        E 120 80 35 00
        E 360 90 26 7f
        E 120 80 26 00
        E 360 90 35 7f
        E 120 80 35 00
        E 360 90 24 7f
        E 120 80 24 00
        E 360 90 35 7f
        E 0 90 26 7f
        E 120 80 35 00
        E 0 80 26 00
        E 840 90 24 7f
        E 0 90 3e 7f
        E 120 80 24 00
        E 0 80 3e 00
        E 840 90 3e 7f
        E 0 90 26 7f
        E 120 80 3e 00
        E 0 80 26 00
        E 840 90 3e 7f
        E 0 90 24 7f
        E 120 80 3e 00
        E 0 80 24 00
        E 360 90 24 7f
        E 120 80 24 00
        E 360 90 3e 7f
        E 0 90 26 7f
        E 120 80 3e 00
        E 0 80 26 00
        E 840 90 24 7f
        E 0 90 3e 7f
        E 120 80 24 00
        E 0 80 3e 00
        E 840 90 3e 7f
        E 0 90 26 7f
        E 120 80 3e 00
        E 0 80 26 00
        E 840 90 3e 7f
        E 0 90 24 7f
        E 120 80 3e 00
        E 0 80 24 00
        E 360 90 24 7f
        E 120 80 24 00
        E 360 90 3e 7f
        E 0 90 26 7f
        E 120 80 3e 00
        E 0 80 26 00
        E 840 90 24 7f
        E 0 90 3e 7f
        E 120 80 24 00
        E 0 80 3e 00
        E 840 90 3e 7f
        E 0 90 26 7f
        E 120 80 3e 00
        E 0 80 26 00
        E 840 90 3e 7f
        E 0 90 24 7f
        E 120 80 3e 00
        E 0 80 24 00
        E 360 90 24 7f
        E 120 80 24 00
        E 360 90 3e 7f
        E 0 90 26 7f
        E 120 80 3e 00
        E 0 80 26 00
        E 840 90 24 7f
        E 0 90 3e 7f
        E 120 80 24 00
        E 0 80 3e 00
        E 840 90 3e 7f
        E 0 90 26 7f
        E 120 80 3e 00
        E 0 80 26 00
        E 840 90 3e 7f
        E 0 90 24 7f
        E 120 80 3e 00
        E 0 80 24 00
        E 360 90 24 7f
        E 120 80 24 00
        E 360 90 3e 7f
        E 0 90 26 7f
        E 120 80 3e 00
        E 0 80 26 00
        E 840 90 24 7f
        E 0 90 3e 7f
        E 120 80 24 00
        E 0 80 3e 00
        E 840 90 3e 7f
        E 0 90 26 7f
        E 120 80 3e 00
        E 0 80 26 00
        E 840 90 3e 7f
        E 0 90 24 7f
        E 120 80 3e 00
        E 0 80 24 00
        E 360 90 24 7f
        E 120 80 24 00
        E 360 90 3e 7f
        E 0 90 26 7f
        E 120 80 3e 00
        E 0 80 26 00
        E 840 90 24 7f
        E 0 90 3e 7f
        E 120 80 24 00
        E 0 80 3e 00
        E 840 90 3e 7f
        E 0 90 26 7f
        E 120 80 3e 00
        E 0 80 26 00
        E 840 90 3e 7f
        E 0 90 24 7f
        E 120 80 3e 00
        E 0 80 24 00
        E 360 90 24 7f
        E 120 80 24 00
        E 360 90 3e 7f
        E 0 90 26 7f
        E 120 80 3e 00
        E 0 80 26 00
        E 840 90 24 7f
        E 0 90 37 7f
        E 120 80 24 00
        E 0 80 37 00
        E 840 90 34 7f
        E 120 80 34 00
        E 360 90 26 7f
        E 120 80 26 00
        E 360 90 34 7f
        E 120 80 34 00
        E 360 90 24 7f
        E 120 80 24 00
        E 360 90 34 7f
        E 0 90 26 7f
        E 120 80 34 00
        E 0 80 26 00
        E 840 90 24 7f
        E 0 90 34 7f
        E 120 80 24 00
        E 0 80 34 00
        E 840 90 34 7f
        E 120 80 34 00
        E 360 90 26 7f
        E 120 80 26 00
        E 360 90 34 7f
        E 120 80 34 00
        E 360 90 24 7f
        E 120 80 24 00
        E 360 90 34 7f
        E 0 90 26 7f
        E 120 80 34 00
        E 0 80 26 00
        E 840 90 24 7f
        E 0 90 34 7f
        E 120 80 24 00
        E 0 80 34 00
        E 840 90 34 7f
        E 120 80 34 00
        E 360 90 26 7f
        E 120 80 26 00
        E 360 90 34 7f
        E 120 80 34 00
        E 360 90 24 7f
        E 120 80 24 00
        E 360 90 34 7f
        E 0 90 26 7f
        E 120 80 34 00
        E 0 80 26 00
        E 840 90 24 7f
        E 0 90 34 7f
        E 120 80 24 00
        E 0 80 34 00
        E 840 90 34 7f
        E 120 80 34 00
        E 360 90 26 7f
        E 120 80 26 00
        E 360 90 34 7f
        E 120 80 34 00
        E 360 90 24 7f
        E 120 80 24 00
        E 360 90 34 7f
        E 0 90 26 7f
        E 120 80 34 00
        E 0 80 26 00
        E 840 90 24 7f
        E 0 90 34 7f
        E 120 80 24 00
        E 0 80 34 00
        E 840 90 34 7f
        E 120 80 34 00
        E 360 90 26 7f
        E 120 80 26 00
        E 360 90 34 7f
        E 120 80 34 00
        E 360 90 24 7f
        E 120 80 24 00
        E 360 90 34 7f
        E 0 90 26 7f
        E 120 80 34 00
        E 0 80 26 00
        E 840 90 24 7f
        E 0 90 34 7f
        E 120 80 24 00
        E 0 80 34 00
        E 840 90 34 7f
        E 120 80 34 00
        E 360 90 26 7f
        E 120 80 26 00
        E 360 90 34 7f
        E 120 80 34 00
        E 360 90 24 7f
        E 120 80 24 00
        E 360 90 34 7f
        E 0 90 26 7f
        E 120 80 34 00
        E 0 80 26 00
        E 840 90 24 7f
        E 0 90 34 7f
        E 120 80 24 00
        E 0 80 34 00
        E 840 90 34 7f
        E 120 80 34 00
        E 360 90 26 7f
        E 120 80 26 00
        E 360 90 34 7f
        E 120 80 34 00
        E 360 90 24 7f
        E 120 80 24 00
        E 360 90 34 7f
        E 0 90 26 7f
        E 120 80 34 00
        E 0 80 26 00
        E 840 90 24 60
        E 0 90 37 7f
        E 120 80 24 00
        E 0 80 37 00
        E 600 90 24 7f
        E 0 90 39 7f
        E 120 80 24 00
        E 0 80 39 00
        E 600 90 24 7f
        E 0 90 37 7f
        E 120 80 24 00
        E 0 80 37 00
        E 360 b0 7b 00
        CCINTERP 32
        CHASE_CC_TAKEOFFS 1
        GUID {D57E8E19-EC11-44F9-9E50-2CFFE632B498}
        IGNTEMPO 0 120 4 4
        SRCCOLOR 283
        VELLANE -1 133 0 0 1
        CFGEDITVIEW 0 0.001941 65 12 0 -1 0 0 0 0.5
        KEYSNAP 0
        TRACKSEL -252
        EVTFILTER 0 -1 -1 -1 -1 0 0 0 0 -1 -1 -1 -1 0 -1 0 -1 -1
        CFGEDIT 1 1 0 1 1 17 1 1 1 1 1 0.25 203 192 1593 993 0 0 0 1 0 0 1 0 0 0.5 0 0 1 64
      >
    >
  >
  <TRACK {26DD919A-3EB3-4668-8721-D362B6686E57}
    NAME Vikta
    PEAKCOL 16576
    BEAT -1
    AUTOMODE 0
    VOLPAN 1 0 -1 -1 1
    MUTESOLO 1 0 0
    IPHASE 0
    PLAYOFFS 0 1
    ISBUS 0 0
    BUSCOMP 0 0 0 0 0
    SHOWINMIX 1 0.6667 0.5 1 0.5 -1 -1 -1
    SEL 0
    REC 0 2 1 0 0 0 0 0
    VU 2
    TRACKHEIGHT 51 0 0 0 0 0 0
    INQ 0 0 0 0.5 100 0 0 100
    NCHAN 2
    FX 1
    TRACKID {26DD919A-3EB3-4668-8721-D362B6686E57}
    PERF 0
    MIDIOUT -1
    MAINSEND 1 0
    <FXCHAIN
      WNDRECT 24 52 1091 633
      SHOW 0
      LASTSEL 3
      DOCKED 0
    >
    <ITEM
      POSITION 116.60377358490567
      SNAPOFFS 0
      LENGTH 91.69811320754715
      LOOP 1
      ALLTAKES 0
      FADEIN 1 0.01 0 1 0 0 0
      FADEOUT 1 0.01 0 1 0 0 0
      MUTE 0 0
      SEL 0
      IGUID {21FE03A0-2D56-4514-B1A1-D0F4FD8B0ABE}
      IID 1
      NAME "07 - You Are The Rock - Vikta - 053.wav"
      VOLPAN 1 0 1 -1
      SOFFS 21.51444025157233
      PLAYRATE 1 1 0 -1 0 0.0025
      CHANMODE 0
      GUID {C92BEF60-EF09-4692-B670-F5B0B5106322}
      RECPASS 53
      <SOURCE WAVE
        FILE "07 - You Are The Rock - Vikta - 053.wav"
      >
    >
  >
  <TRACK {D58DBE03-B233-43F2-82C1-842CCF6C1AF3}
    NAME "Real Tune Control"
    PEAKCOL 33521664
    BEAT -1
    AUTOMODE 0
    VOLPAN 1 0 -1 -1 1
    MUTESOLO 1 0 0
    IPHASE 0
    PLAYOFFS 0 1
    ISBUS 0 0
    BUSCOMP 0 0 0 0 0
    SHOWINMIX 1 0.6667 0.5 1 0.5 0 -1 0
    SEL 0
    REC 0 0 1 0 0 0 0 0
    VU 2
    TRACKHEIGHT 0 0 0 0 0 0 0
    INQ 0 0 0 0.5 100 0 0 100
    NCHAN 2
    FX 1
    TRACKID {D58DBE03-B233-43F2-82C1-842CCF6C1AF3}
    PERF 0
    MIDIOUT 288
    MAINSEND 0 0
    <ITEM
      POSITION 2.26415094339623
      SNAPOFFS 0
      LENGTH 2.26415094339623
      LOOP 1
      ALLTAKES 0
      FADEIN 1 0 0 1 0 0 0
      FADEOUT 1 0 0 1 0 0 0
      MUTE 0 0
      SEL 0
      IGUID {240E9B3A-F974-43CC-981F-B31B273C6536}
      IID 1531
      NAME "Real Tune Control untitled MIDI item"
      VOLPAN 1 0 1 -1
      SOFFS 0 0
      PLAYRATE 1 1 0 -1 0 0.0025
      CHANMODE 0
      GUID {9890AB8F-134C-4A0B-8BEA-A0755565DC3A}
      <SOURCE MIDI
        HASDATA 1 960 QN
        CCINTERP 32
        POOLEDEVTS {AD0FA957-08A2-4059-A5E1-8ED386EF7E70}
        e 0 c0 08 00
        E 3840 b0 7b 00
        CCINTERP 32
        CHASE_CC_TAKEOFFS 1
        GUID {78D956DC-DC93-493C-8B46-76653C7F79F7}
        IGNTEMPO 0 120 4 4
        SRCCOLOR 1838
        VELLANE 131 314 0 0 1
        CFGEDITVIEW -201.985783 0.19953 61 12 0 -1 0 0 0 0.5
        KEYSNAP 0
        TRACKSEL 252
        EVTFILTER 0 -1 -1 -1 -1 0 0 0 0 -1 -1 -1 -1 0 -1 0 -1 -1
        CFGEDIT 1 1 0 1 1 4 1 1 1 1 1 4 262 328 1620 1262 0 0 0 0 0 0 1 0 0 0.5 0 0 1 64
      >
    >
  >
  <EXTENSIONS
  >
>
